<svg xmlns="http://www.w3.org/2000/svg" width="30" height="28" viewBox="0 0 30 28" fill="none">
  <path d="M14.5711 0.788993C13.5527 0.031134 12.2726 -0.193704 11.0568 0.170946L2.83311 2.638C1.13894 3.14657 0 4.6761 0 6.44559V24.0224C0 25.2916 0.583888 26.4539 1.60214 27.2106C2.62059 27.9685 3.90214 28.1933 5.11648 27.8287L11.2555 25.9865C11.0635 25.3533 10.9663 24.6926 10.9663 24.0224V16.04C10.9663 14.3637 11.5776 12.7628 12.6905 11.5347C13.5073 10.6301 14.567 9.96264 15.7512 9.60629L16.1733 9.48571V3.97844C16.1733 2.70921 15.5894 1.54695 14.571 0.788993H14.5711Z" fill="#6C5DD3"/>
  <path d="M29.8796 13.5728V21.5552C29.8796 23.3234 28.7419 24.8543 27.0465 25.3615L18.8228 27.8286C18.4418 27.9437 18.0539 28 17.6701 28C16.8298 28 16.0075 27.7314 15.3084 27.2105C14.989 26.972 14.7122 26.6965 14.4847 26.3882C14.2078 26.0181 14.0008 25.6056 13.8706 25.1628C13.8692 25.1628 13.8679 25.1628 13.8665 25.1641L13.8692 25.1614C13.7638 24.7981 13.7062 24.4158 13.7062 24.0224V16.0399C13.7062 15.2203 13.9501 14.4514 14.3806 13.8126C14.811 13.1739 15.4277 12.6641 16.1733 12.3611C16.2926 12.3132 16.4146 12.2692 16.5394 12.2323L17.5454 11.9308L24.7632 9.76518C25.9788 9.40053 27.2591 9.62537 28.2774 10.3833C29.2959 11.1413 29.8797 12.3035 29.8797 13.5728H29.8796Z" fill="#6C5DD3"/>
</svg>