<svg xmlns="http://www.w3.org/2000/svg" width="40" height="41" viewBox="0 0 40 41" fill="none">
  <path d="M15 3.83325H25C33.3334 3.83325 36.6667 7.16659 36.6667 15.4999V25.4999C36.6667 33.8333 33.3334 37.1666 25 37.1666H15C6.66671 37.1666 3.33337 33.8333 3.33337 25.4999V15.4999C3.33337 7.16659 6.66671 3.83325 15 3.83325Z" stroke="#E5CB9B" stroke-width="2" stroke-linecap="round" stroke-linejoin="round"/>
  <path d="M14.2834 25.95L25.1834 15.05" stroke="#E5CB9B" stroke-width="2" stroke-linecap="round" stroke-linejoin="round"/>
  <path d="M14.9666 17.7833C16.0988 17.7833 17.0166 16.8656 17.0166 15.7334C17.0166 14.6012 16.0988 13.6833 14.9666 13.6833C13.8345 13.6833 12.9166 14.6012 12.9166 15.7334C12.9166 16.8656 13.8345 17.7833 14.9666 17.7833Z" stroke="#E5CB9B" stroke-width="2" stroke-linecap="round" stroke-linejoin="round"/>
  <path d="M25.8667 27.3168C26.9989 27.3168 27.9168 26.3989 27.9168 25.2668C27.9168 24.1346 26.9989 23.2168 25.8667 23.2168C24.7346 23.2168 23.8168 24.1346 23.8168 25.2668C23.8168 26.3989 24.7346 27.3168 25.8667 27.3168Z" stroke="#E5CB9B" stroke-width="2" stroke-linecap="round" stroke-linejoin="round"/>
</svg>