<svg xmlns="http://www.w3.org/2000/svg" width="40" height="41" viewBox="0 0 40 41" fill="none">
  <path d="M36.667 10.4999V14.5333C36.667 17.1666 35.0003 18.8333 32.367 18.8333H26.667V7.18325C26.667 5.33325 28.1837 3.83325 30.0337 3.83325C31.8504 3.84992 33.517 4.58325 34.717 5.78325C35.917 6.99992 36.667 8.66659 36.667 10.4999Z" stroke="#E39AB2" stroke-width="2" stroke-miterlimit="10" stroke-linecap="round" stroke-linejoin="round"/>
  <path d="M3.33301 12.1666V35.4999C3.33301 36.8833 4.89963 37.6666 5.99963 36.8333L8.84967 34.6999C9.51634 34.1999 10.4497 34.2666 11.0497 34.8666L13.8163 37.6499C14.4663 38.2999 15.533 38.2999 16.183 37.6499L18.983 34.8499C19.5664 34.2666 20.4997 34.1999 21.1497 34.6999L23.9997 36.8333C25.0997 37.6499 26.6663 36.8666 26.6663 35.4999V7.16659C26.6663 5.33325 28.1663 3.83325 29.9997 3.83325H11.6663H9.99967C4.99967 3.83325 3.33301 6.81659 3.33301 10.4999V12.1666Z" stroke="#E39AB2" stroke-width="2" stroke-miterlimit="10" stroke-linecap="round" stroke-linejoin="round"/>
  <path d="M10 15.5H20" stroke="#E39AB2" stroke-width="2" stroke-linecap="round" stroke-linejoin="round"/>
  <path d="M11.25 22.1667H18.75" stroke="#E39AB2" stroke-width="2" stroke-linecap="round" stroke-linejoin="round"/>
</svg>